<?xml version="1.0" encoding="utf-8"?>
<!-- Generator: Adobe Illustrator 22.1.0, SVG Export Plug-In . SVG Version: 6.00 Build 0)  -->
<svg version="1.1" id="Layer_1" xmlns="http://www.w3.org/2000/svg" xmlns:xlink="http://www.w3.org/1999/xlink" x="0px" y="0px"
	 viewBox="0 0 1865 1044" style="enable-background:new 0 0 1865 1044;" xml:space="preserve">
<style type="text/css">
	.st0{fill:#050505;}
	.st1{font-family:'Autery';}
	.st2{font-size:900px;}
	.st3{fill:#020202;}
	.st4{font-size:1070px;}
	.st5{font-family:'Helvetica';}
	.st6{font-size:901px;}
	.st7{font-size:875px;}
	.st8{font-size:878px;}
	.st9{fill:#020000;}
	.st10{fill:#FF6F69;}
	.st11{fill:#9F7694;}
</style>
<text transform="matrix(1 0 0 1 101.0049 784.6758)" class="st0 st1 st2">g</text>
<text transform="matrix(1 0 0 1 556.4004 736.5361)" class="st3 st1 st4">i</text>
<text transform="matrix(1 0 0 1 750.2471 826.2324)" class="st3 st5 st6">f</text>
<text transform="matrix(1 0 0 1 1034.8096 814.5498)" class="st0 st5 st7">t</text>
<text transform="matrix(1 0 0 1 1317.6667 750.7676)" class="st3 st1 st8">d</text>
<rect x="975" y="357" class="st9" width="72" height="63"/>
<path class="st10" d="M919.2,343.1c0-14,0-28,0-42c1.1-0.2,2.3-0.3,3.4-0.4c33.6-3,63.8,19.6,85.2,42"/>
<path class="st10" d="M919.2,342.7c0,14,0,28,0,42c1.1,0.2,2.3,0.3,3.4,0.4c33.7,3,63.9-19.9,85.2-42.4"/>
<path class="st10" d="M1096.1,343.1c0-14,0-28,0-42c-1.1-0.2-2.3-0.3-3.4-0.4c-33.6-3-63.8,19.6-85.2,42"/>
<path class="st10" d="M1096.1,342.7c0,14,0,28,0,42c-1.1,0.2-2.3,0.3-3.4,0.4c-33.7,3-63.9-19.9-85.2-42.4"/>
<path class="st11" d="M1012.5,358.5h-10.1c-6.8,0-12.4-5.6-12.4-12.4v0c0-6.8,5.6-12.4,12.4-12.4h10.1c6.8,0,12.4,5.6,12.4,12.4v0
	C1024.9,352.9,1019.4,358.5,1012.5,358.5z"/>
</svg>
