<svg version="1.1" id="Layer_1" xmlns="http://www.w3.org/2000/svg" xmlns:xlink="http://www.w3.org/1999/xlink" x="0px" y="0px"
	 viewBox="0 0 1865 1044" style="enable-background:new 0 0 1865 1044;" xml:space="preserve">
<style type="text/css">
	.st0{fill:#FFFFFF;}
	.st1{font-family:'Autery';}
	.st2{font-size:900px;}
	.st3{font-size:1070px;}
	.st4{font-family:'Helvetica';}
	.st5{font-size:901px;}
	.st6{font-size:875px;}
	.st7{font-size:878px;}
	.st8{fill:#FF6F69;}
	.st9{fill:#9F7694;}
</style>
<text transform="matrix(1 0 0 1 101.0049 784.6758)" class="st0 st1 st2">g</text>
<text transform="matrix(1 0 0 1 559.4004 739.5361)" class="st0 st1 st3">i</text>
<text transform="matrix(1 0 0 1 750.2471 826.2324)" class="st0 st4 st5">f</text>
<text transform="matrix(1 0 0 1 1034.8096 814.5498)" class="st0 st4 st6">t</text>
<text transform="matrix(1 0 0 1 1318.6667 729.7676)" class="st0 st1 st7">d</text>
<rect x="975" y="357" class="st0" width="72" height="63"/>
<path class="st8" d="M918.2,343.1c0-14,0-28,0-42c1.1-0.2,2.3-0.3,3.4-0.4c33.6-3,63.8,19.6,85.2,42"/>
<path class="st8" d="M918.2,342.7c0,14,0,28,0,42c1.1,0.2,2.3,0.3,3.4,0.4c33.7,3,63.9-19.9,85.2-42.4"/>
<path class="st8" d="M1095.1,343.1c0-14,0-28,0-42c-1.1-0.2-2.3-0.3-3.4-0.4c-33.6-3-63.8,19.6-85.2,42"/>
<path class="st8" d="M1095.1,342.7c0,14,0,28,0,42c-1.1,0.2-2.3,0.3-3.4,0.4c-33.7,3-63.9-19.9-85.2-42.4"/>
<path class="st9" d="M1011.5,355.5h-10.1c-6.8,0-12.4-5.6-12.4-12.4v0c0-6.8,5.6-12.4,12.4-12.4h10.1c6.8,0,12.4,5.6,12.4,12.4v0
	C1023.9,349.9,1018.4,355.5,1011.5,355.5z"/>
</svg>
